<svg width="444" height="55" viewBox="0 0 444 55" fill="none" xmlns="http://www.w3.org/2000/svg">
<path d="M77.1151 53.1356L66.8114 16.4266H72.0153L79.717 46.6853L88.6156 17.1608H93.8195L102.718 46.6853L110.42 16.4266H115.624L105.32 53.1356H100.064L91.2176 23.6111L82.371 53.1356H77.1151Z" fill="#E9D985"/>
<path d="M128.125 53.66C125.453 53.66 123.172 53.0657 121.282 51.877C119.408 50.6708 117.969 49.0627 116.962 47.0524C115.974 45.0247 115.479 42.7697 115.479 40.2875C115.479 37.8052 115.974 35.559 116.962 33.5487C117.969 31.521 119.408 29.9128 121.282 28.7241C123.172 27.518 125.453 26.9149 128.125 26.9149C130.779 26.9149 133.051 27.518 134.942 28.7241C136.833 29.9128 138.272 31.521 139.261 33.5487C140.267 35.559 140.77 37.8052 140.77 40.2875C140.77 42.7697 140.267 45.0247 139.261 47.0524C138.272 49.0627 136.833 50.6708 134.942 51.877C133.051 53.0657 130.779 53.66 128.125 53.66ZM128.125 49.4647C130.657 49.4647 132.6 48.6606 133.953 47.0524C135.306 45.4267 135.983 43.1717 135.983 40.2875C135.983 37.4032 135.306 35.1569 133.953 33.5487C132.6 31.9231 130.657 31.1102 128.125 31.1102C125.61 31.1102 123.667 31.9231 122.296 33.5487C120.943 35.1569 120.267 37.4032 120.267 40.2875C120.267 43.1717 120.943 45.4267 122.296 47.0524C123.667 48.6606 125.61 49.4647 128.125 49.4647Z" fill="#E9D985"/>
<path d="M145.6 53.1356V27.4393H149.45L150.023 31.6871C151.324 30.0614 152.564 28.864 153.744 28.0948C154.941 27.3082 156.216 26.9149 157.569 26.9149C158.002 26.9149 158.401 26.9674 158.765 27.0722L158.297 32.2639C158.072 32.2115 157.829 32.1765 157.569 32.159C157.326 32.1241 157.048 32.1066 156.736 32.1066C155.383 32.1066 154.134 32.4125 152.989 33.0243C151.862 33.6187 151.064 34.2742 150.595 34.9909V53.1356H145.6Z" fill="#E9D985"/>
<path d="M168.622 53.66C166.974 53.66 165.664 53.3628 164.693 52.7685C163.739 52.1567 163.054 51.3788 162.637 50.4349C162.221 49.4909 162.013 48.5033 162.013 47.4719V13.8046H166.696V44.745C166.696 46.2133 166.792 47.3146 166.983 48.0488C167.173 48.783 167.555 49.2724 168.127 49.5171C168.717 49.7619 169.611 49.8842 170.807 49.8842L170.131 53.66H168.622Z" fill="#E9D985"/>
<path d="M184.205 53.66C182.036 53.66 180.076 53.0657 178.324 51.877C176.572 50.6883 175.176 49.0889 174.135 47.0786C173.112 45.0684 172.6 42.8221 172.6 40.3399C172.6 37.98 173.068 35.7775 174.005 33.7323C174.959 31.6871 176.303 30.0439 178.038 28.8028C179.773 27.5442 181.828 26.9149 184.205 26.9149C185.905 26.9149 187.544 27.2907 189.122 28.0424C190.718 28.7766 192.01 30.009 192.999 31.7395L192.01 32.4213V13.8046H196.694V53.1356H192.531L191.646 47.6817L192.843 48.5208C192.097 50.2164 190.926 51.5012 189.33 52.3752C187.735 53.2317 186.026 53.66 184.205 53.66ZM185.037 49.4647C186.217 49.4647 187.379 49.1588 188.524 48.547C189.686 47.9352 190.64 46.965 191.386 45.6365C192.149 44.2905 192.531 42.525 192.531 40.3399C192.531 38.3122 192.149 36.6166 191.386 35.2531C190.64 33.8721 189.686 32.8408 188.524 32.159C187.379 31.4598 186.217 31.1102 185.037 31.1102C183.441 31.1102 182.071 31.5123 180.926 32.3164C179.781 33.1205 178.905 34.2217 178.298 35.6202C177.691 37.0011 177.388 38.5744 177.388 40.3399C177.388 42.0005 177.691 43.5213 178.298 44.9023C178.905 46.2833 179.781 47.3933 180.926 48.2323C182.071 49.0539 183.441 49.4647 185.037 49.4647Z" fill="#E9D985"/>
<path d="M225.799 53.66C223.128 53.66 220.847 53.0657 218.956 51.877C217.082 50.6708 215.643 49.0627 214.637 47.0524C213.648 45.0247 213.154 42.7697 213.154 40.2875C213.154 37.8052 213.648 35.559 214.637 33.5487C215.643 31.521 217.082 29.9128 218.956 28.7241C220.847 27.518 223.128 26.9149 225.799 26.9149C228.453 26.9149 230.725 27.518 232.616 28.7241C234.507 29.9128 235.947 31.521 236.935 33.5487C237.941 35.559 238.444 37.8052 238.444 40.2875C238.444 42.7697 237.941 45.0247 236.935 47.0524C235.947 49.0627 234.507 50.6708 232.616 51.877C230.725 53.0657 228.453 53.66 225.799 53.66ZM225.799 49.4647C228.332 49.4647 230.274 48.6606 231.627 47.0524C232.98 45.4267 233.657 43.1717 233.657 40.2875C233.657 37.4032 232.98 35.1569 231.627 33.5487C230.274 31.9231 228.332 31.1102 225.799 31.1102C223.284 31.1102 221.341 31.9231 219.971 33.5487C218.618 35.1569 217.941 37.4032 217.941 40.2875C217.941 43.1717 218.618 45.4267 219.971 47.0524C221.341 48.6606 223.284 49.4647 225.799 49.4647Z" fill="#E9D985"/>
<path d="M244.789 53.1356V31.1102H240.366L240.99 27.4393H244.789V21.3561C244.789 19.0662 245.396 17.2395 246.61 15.876C247.825 14.495 249.611 13.8046 251.97 13.8046C252.838 13.8046 253.592 13.8658 254.234 13.9881C254.893 14.1105 255.492 14.2765 256.029 14.4863L255.301 18.4719C254.885 18.3145 254.477 18.2009 254.078 18.131C253.679 18.0436 253.219 17.9999 252.699 17.9999C251.693 17.9999 250.904 18.2883 250.331 18.8652C249.759 19.4245 249.472 20.3597 249.472 21.6708V27.4393H256.342V31.1102H249.472V53.1356H244.789Z" fill="#E9D985"/>
<path d="M292.595 43.2242H276.983V38.7142H292.595V43.2242ZM284.061 21.3037H285.518L274.329 53.1356H269.126L282.187 16.4266H287.391L300.453 53.1356H295.249L284.061 21.3037Z" fill="#E9D985"/>
<path d="M304.003 53.1356V27.4393H307.645L308.582 32.3688L306.761 31.5822C308.478 29.6593 310.152 28.4008 311.782 27.8064C313.43 27.2121 315.035 26.9149 316.596 26.9149C320.325 26.9149 322.988 27.9987 324.584 30.1663C326.197 32.3339 327.004 35.2706 327.004 38.9764V53.1356H322.32V38.9764C322.32 36.2495 321.817 34.2567 320.811 32.9981C319.805 31.7395 318.088 31.1102 315.659 31.1102C313.942 31.1102 312.363 31.4948 310.924 32.2639C309.501 33.0156 308.565 34.2217 308.114 35.8824L308.686 32.9981V53.1356H304.003Z" fill="#E9D985"/>
<path d="M333.071 53.1356V27.4393H337.755V53.1356H333.071ZM333.071 21.6708V16.4266H337.755V21.6708H333.071Z" fill="#E9D985"/>
<path d="M344.099 53.1356V27.4393H347.741L348.678 32.3688L346.909 31.5298C348.505 29.7992 350.057 28.6018 351.566 27.9375C353.075 27.2558 354.663 26.9149 356.328 26.9149C357.577 26.9149 358.774 27.1247 359.918 27.5442C361.081 27.9463 362.121 28.663 363.041 29.6943C363.977 30.7082 364.723 32.1241 365.279 33.9421L363.978 33.3652C364.741 31.3724 365.912 29.7992 367.49 28.6455C369.069 27.4918 371.194 26.9149 373.865 26.9149C375.998 26.9149 377.794 27.317 379.251 28.1211C380.708 28.9077 381.801 30.1226 382.529 31.7657C383.275 33.3914 383.648 35.4629 383.648 37.98V53.1356H378.965V38.0325C378.965 35.6202 378.496 33.8634 377.56 32.7621C376.623 31.6609 375.096 31.1102 372.98 31.1102C371.488 31.1102 370.292 31.3462 369.39 31.8182C368.488 32.2727 367.802 32.867 367.334 33.6012C366.883 34.3354 366.579 35.1132 366.423 35.9348C366.285 36.7564 366.215 37.5255 366.215 38.2422V53.1356H361.532V38.9764C361.532 36.8788 361.28 35.2618 360.777 34.1256C360.274 32.9894 359.572 32.2028 358.67 31.7657C357.768 31.3287 356.727 31.1102 355.547 31.1102C353.83 31.1102 352.295 31.4948 350.942 32.2639C349.589 33.0156 348.678 34.2217 348.21 35.8824L348.782 33.3128V53.1356H344.099Z" fill="#E9D985"/>
<path d="M395.667 53.66C394.088 53.66 392.709 53.3366 391.53 52.6898C390.35 52.0431 389.431 51.1603 388.772 50.0416C388.13 48.9228 387.809 47.6467 387.809 46.2133C387.809 44.7625 388.121 43.5213 388.746 42.49C389.387 41.4412 390.237 40.5759 391.295 39.8942C392.371 39.1949 393.568 38.6443 394.886 38.2422C396.204 37.8227 397.566 37.5256 398.971 37.3507C400.393 37.1585 401.755 37.0536 403.056 37.0361C403.056 34.5888 402.579 32.9894 401.625 32.2377C400.671 31.4861 399.292 31.1102 397.488 31.1102C396.534 31.1102 395.511 31.2588 394.418 31.556C393.342 31.8531 392.128 32.4737 390.775 33.4176L390.099 29.5894C391.122 28.8028 392.397 28.1648 393.923 27.6753C395.45 27.1684 397.054 26.9149 398.737 26.9149C400.888 26.9149 402.623 27.2995 403.941 28.0686C405.259 28.8203 406.222 30.0964 406.829 31.8968C407.436 33.6973 407.74 36.1446 407.74 39.2386V44.4828C407.74 45.7064 407.792 46.7203 407.896 47.5244C408.017 48.311 408.277 48.9053 408.676 49.3074C409.093 49.6919 409.752 49.8842 410.654 49.8842H411.122L410.394 53.66H410.029C408.52 53.66 407.349 53.5114 406.517 53.2143C405.701 52.9171 405.077 52.4888 404.643 51.9294C404.21 51.3701 403.819 50.6883 403.472 49.8842C402.518 51.003 401.391 51.912 400.09 52.6112C398.789 53.3104 397.315 53.66 395.667 53.66ZM396.551 49.8842C397.8 49.8842 399.006 49.5696 400.168 48.9403C401.348 48.311 402.31 47.4719 403.056 46.4231V40.2875C400.576 40.3749 398.563 40.6196 397.02 41.0216C395.493 41.4237 394.374 42.0268 393.663 42.8309C392.952 43.635 392.596 44.6751 392.596 45.9511C392.596 47.3321 392.961 48.3372 393.689 48.9665C394.435 49.5783 395.389 49.8842 396.551 49.8842Z" fill="#E9D985"/>
<path d="M421.294 53.66C419.646 53.66 418.337 53.3628 417.365 52.7685C416.411 52.1567 415.726 51.3788 415.31 50.4349C414.893 49.4909 414.685 48.5033 414.685 47.4719V13.8046H419.369V44.745C419.369 46.2133 419.464 47.3146 419.655 48.0488C419.846 48.783 420.227 49.2724 420.8 49.5171C421.389 49.7619 422.283 49.8842 423.48 49.8842L422.803 53.66H421.294Z" fill="#E9D985"/>
<path d="M434.269 53.66C432.014 53.66 430.14 53.3891 428.649 52.8472C427.174 52.3053 426.133 51.8246 425.526 51.405L426.099 46.8426C426.654 47.3321 427.634 47.8915 429.039 48.5208C430.444 49.15 432.118 49.4647 434.061 49.4647C435.709 49.4647 436.966 49.185 437.833 48.6256C438.718 48.0663 439.16 47.2796 439.16 46.2658C439.16 45.3743 438.874 44.6576 438.302 44.1157C437.747 43.5563 437.07 43.1193 436.272 42.8046C435.492 42.4725 434.754 42.2103 434.061 42.018C432.898 41.7034 431.693 41.3101 430.444 40.8381C429.212 40.3486 428.172 39.6232 427.322 38.6618C426.472 37.7004 426.047 36.3544 426.047 34.6238C426.047 33.3128 426.359 32.0716 426.983 30.9005C427.608 29.7118 428.623 28.7504 430.028 28.0162C431.433 27.282 433.297 26.9149 435.622 26.9149C437.322 26.9149 438.701 27.0985 439.759 27.4655C440.834 27.8152 441.762 28.191 442.543 28.593L441.971 32.8932C441.225 32.2639 440.357 31.7308 439.369 31.2938C438.38 30.8568 437.166 30.6383 435.726 30.6383C434.269 30.6383 433.081 30.9179 432.161 31.4773C431.242 32.0192 430.782 32.8932 430.782 34.0994C430.782 35.3055 431.268 36.1621 432.239 36.669C433.228 37.1759 434.72 37.7353 436.715 38.3471C437.339 38.5219 438.059 38.7754 438.874 39.1075C439.707 39.4397 440.513 39.8854 441.294 40.4448C442.075 41.0042 442.716 41.7383 443.219 42.6473C443.74 43.5388 444 44.6576 444 46.0036C444 47.1398 443.731 48.3023 443.193 49.4909C442.656 50.6621 441.684 51.6498 440.279 52.4539C438.874 53.258 436.871 53.66 434.269 53.66Z" fill="#E9D985"/>
<path d="M0 0H10.1755V22.3729H0V0Z" fill="#E9D985"/>
<path d="M0 32.6271H10.1755V55H0V32.6271Z" fill="#E9D985"/>
<path d="M40.702 0H50.8775V55H40.702V0Z" fill="#E9D985"/>
<path d="M14.8007 0H26.8263V10.2542H14.8007V0Z" fill="#E9D985"/>
<path d="M31.4515 0H50.8775V10.2542H31.4515V0Z" fill="#E9D985"/>
<path d="M0 43.8136H50.8775V55H0V43.8136Z" fill="#E9D985"/>
</svg>
